name Walk1.mot
datacolumns 19
datarows 25
range 0.80500000 0.82900000
endheader

                time	   L_ground_force_vx	   L_ground_force_vy	   L_ground_force_vz	   L_ground_force_px	   L_ground_force_py	   L_ground_force_pz	   R_ground_force_vx	   R_ground_force_vy	   R_ground_force_vz	   R_ground_force_px	   R_ground_force_py	   R_ground_force_pz	   L_ground_torque_x	   L_ground_torque_y	   L_ground_torque_z	   R_ground_torque_x	   R_ground_torque_y	   R_ground_torque_z	
          0.80500000	         -4.22738322	         63.61295675	         -2.37552601	         -0.00238796	          0.00000000	         -0.00132029	         -0.00000000	          0.00000000	          0.00000000	          0.00000000	          0.00000000	          0.00000000	          0.00000000	          0.11067977	          0.00000000	          0.00000000	          0.00000000	          0.00000000	
          0.80600000	         -5.51274529	         70.58478038	         -2.61415707	         -0.01623959	          0.00000000	         -0.00248858	         -0.00000000	          0.00000000	          0.00000000	          0.00000000	          0.00000000	          0.00000000	          0.00000000	          0.12718923	          0.00000000	          0.00000000	          0.00000000	          0.00000000	
          0.80700000	         -6.81459109	         77.75771242	         -2.86524209	         -0.03004846	          0.00000000	         -0.00365524	         -0.00000000	          0.00000000	          0.00000000	          0.00000000	          0.00000000	          0.00000000	          0.00000000	          0.14397905	          0.00000000	          0.00000000	          0.00000000	          0.00000000	
          0.80800000	         -8.13054456	         85.12369464	         -3.12887539	         -0.04377401	          0.00000000	         -0.00481706	         -0.00000000	          0.00000000	          0.00000000	          0.00000000	          0.00000000	          0.00000000	          0.00000000	          0.16101862	          0.00000000	          0.00000000	          0.00000000	          0.00000000	
          0.80900000	         -9.45813207	         92.67346928	         -3.40510671	         -0.05737551	          0.00000000	         -0.00597078	         -0.00000000	          0.00000000	          0.00000000	          0.00000000	          0.00000000	          0.00000000	          0.00000000	          0.17827520	          0.00000000	          0.00000000	          0.00000000	          0.00000000	
          0.81000000	        -10.79480252	        100.39653612	         -3.69393777	         -0.07081307	          0.00000000	         -0.00711315	         -0.00000000	          0.00000000	          0.00000000	          0.00000000	          0.00000000	          0.00000000	          0.00000000	          0.19571417	          0.00000000	          0.00000000	          0.00000000	          0.00000000	
          0.81100000	        -12.13798638	        108.28118123	         -3.99531838	         -0.08404930	          0.00000000	         -0.00824104	         -0.00000000	          0.00000000	          0.00000000	          0.00000000	          0.00000000	          0.00000000	          0.00000000	          0.21329959	          0.00000000	          0.00000000	          0.00000000	          0.00000000	
          0.81200000	        -13.48517119	        116.31454740	         -4.30913993	         -0.09705028	          0.00000000	         -0.00935148	         -0.00000000	          0.00000000	          0.00000000	          0.00000000	          0.00000000	          0.00000000	          0.00000000	          0.23099478	          0.00000000	          0.00000000	          0.00000000	          0.00000000	
          0.81300000	        -14.83397743	        124.48272859	         -4.63522492	         -0.10978578	          0.00000000	         -0.01044180	         -0.00000000	          0.00000000	          0.00000000	          0.00000000	          0.00000000	          0.00000000	          0.00000000	          0.24876257	          0.00000000	          0.00000000	          0.00000000	          0.00000000	
          0.81400000	        -16.18223609	        132.77089999	         -4.97331261	         -0.12222898	          0.00000000	         -0.01150961	         -0.00000000	          0.00000000	          0.00000000	          0.00000000	          0.00000000	          0.00000000	          0.00000000	          0.26656534	          0.00000000	          0.00000000	          0.00000000	          0.00000000	
          0.81500000	        -17.52806604	        141.16348823	         -5.32304104	         -0.13435638	          0.00000000	         -0.01255281	         -0.00000000	          0.00000000	          0.00000000	          0.00000000	          0.00000000	          0.00000000	          0.00000000	          0.28436528	          0.00000000	          0.00000000	          0.00000000	          0.00000000	
          0.81600000	        -18.86994324	        149.64437022	         -5.68392695	         -0.14614755	          0.00000000	         -0.01356966	         -0.00000000	          0.00000000	          0.00000000	          0.00000000	          0.00000000	          0.00000000	          0.00000000	          0.30212482	          0.00000000	          0.00000000	          0.00000000	          0.00000000	
          0.81700000	        -20.20675390	        158.19708292	         -6.05534531	         -0.15758499	          0.00000000	         -0.01455868	         -0.00000000	          0.00000000	          0.00000000	          0.00000000	          0.00000000	          0.00000000	          0.00000000	          0.31980740	          0.00000000	          0.00000000	          0.00000000	          0.00000000	
          0.81800000	        -21.53782520	        166.80502393	         -6.43651092	         -0.16865394	          0.00000000	         -0.01551867	         -0.00000000	          0.00000000	          0.00000000	          0.00000000	          0.00000000	          0.00000000	          0.00000000	          0.33737843	          0.00000000	          0.00000000	          0.00000000	          0.00000000	
          0.81900000	        -22.86293070	        175.45162679	         -6.82646408	         -0.17934221	          0.00000000	         -0.01644870	         -0.00000000	          0.00000000	          0.00000000	          0.00000000	          0.00000000	          0.00000000	          0.00000000	          0.35480617	          0.00000000	          0.00000000	          0.00000000	          0.00000000	
          0.82000000	        -24.18227100	        184.12050269	         -7.22406202	         -0.18963999	          0.00000000	         -0.01734805	         -0.00000000	          0.00000000	          0.00000000	          0.00000000	          0.00000000	          0.00000000	          0.00000000	          0.37206233	          0.00000000	          0.00000000	          0.00000000	          0.00000000	
          0.82100000	        -25.49643326	        192.79554866	         -7.62797717	         -0.19953970	          0.00000000	         -0.01821619	         -0.00000000	          0.00000000	          0.00000000	          0.00000000	          0.00000000	          0.00000000	          0.00000000	          0.38912212	          0.00000000	          0.00000000	          0.00000000	          0.00000000	
          0.82200000	        -26.80633499	        201.46102819	         -8.03670261	         -0.20903586	          0.00000000	         -0.01905278	         -0.00000000	          0.00000000	          0.00000000	          0.00000000	          0.00000000	          0.00000000	          0.00000000	          0.40596378	          0.00000000	          0.00000000	          0.00000000	          0.00000000	
          0.82300000	        -28.11315803	        210.10163327	         -8.44856424	         -0.21812487	          0.00000000	         -0.01985764	         -0.00000000	          0.00000000	          0.00000000	          0.00000000	          0.00000000	          0.00000000	          0.00000000	          0.42256757	          0.00000000	          0.00000000	          0.00000000	          0.00000000	
          0.82400000	        -29.41827826	        218.70253733	         -8.86173864	         -0.22680493	          0.00000000	         -0.02063073	         -0.00000000	          0.00000000	          0.00000000	          0.00000000	          0.00000000	         -0.00000000	          0.00000000	          0.43891465	          0.00000000	          0.00000000	          0.00000000	          0.00000000	
          0.82500000	        -30.72319547	        227.24944693	         -9.27427530	         -0.23507587	          0.00000000	         -0.02137216	         -0.00000000	          0.00000000	          0.00000000	         -0.00000000	          0.00000000	         -0.00000000	          0.00000000	          0.45498586	          0.00000000	          0.00000000	          0.00000000	          0.00000000	
          0.82600000	        -32.02946659	        235.72865779	         -9.68412169	         -0.24293905	          0.00000000	         -0.02208215	         -0.00000000	          0.00000000	          0.00000000	         -0.00000000	          0.00000000	         -0.00000000	          0.00000000	          0.47076081	          0.00000000	          0.00000000	          0.00000000	          0.00000000	
          0.82700000	        -33.33864427	        244.12711729	        -10.08915010	         -0.25039717	          0.00000000	         -0.02276106	         -0.00000000	          0.00000000	          0.00000000	         -0.00000000	          0.00000000	         -0.00000000	          0.00000000	          0.48621729	          0.00000000	          0.00000000	          0.00000000	          0.00000000	
          0.82800000	        -34.65222217	        252.43249261	        -10.48718517	         -0.25745421	          0.00000000	         -0.02340935	         -0.00000000	          0.00000000	          0.00000000	         -0.00000000	          0.00000000	         -0.00000000	          0.00000000	          0.50133107	          0.00000000	          0.00000000	          0.00000000	          0.00000000	
          0.82900000	        -35.97158796	        260.63324171	        -10.87603096	         -0.26411530	          0.00000000	         -0.02402759	         -0.00000000	          0.00000000	          0.00000000	         -0.00000000	          0.00000000	         -0.00000000	          0.00000000	          0.51607608	          0.00000000	          0.00000000	          0.00000000	          0.00000000	
